Description

Sinopse e detalhes

O leão Alex (Ben Stiller) é a grande atração do zoológico do Central Park, em Nova York. Ele e seus melhores amigos, a zebra Marty (Chris Rock), a girafa Melman (David Schwimmer) e a hipopótomo Gloria (Jada Pinkett Smith), sempre passaram a vida em cativeiro e desconhecem o que é morar na selva. Curioso em saber o que há por trás dos muros do zoológico, Marty decide fugir para explorar o mundo. Ao perceberem a fuga do amigo, Alex, Gloria e Melman decidem partir à sua procura. O trio encontra Marty na estação Grand Central do metrô, mas antes que consigam voltar para casa são atingidos por dardos tranquilizantes e capturados. Eles são embarcados em um navio rumo à África, onde serão colocados em liberdade por um grupo de humanos que quer tirar os animais da vida estressante em cativeiro. Após um grupo de pinguins, que também está no navio, sabotá-lo, o grupo vai parar na ilha de Madagascar, onde precisa encontrar meios de sobrevivência em uma selva verdadeira.

Format : Matroska
Format version : Version 2
File size : 916 MiB
Duration : 1h 25mn
Overall bit rate : 1 491 Kbps
Encoded date : UTC 2013-05-03 20:32:47
Writing application : mkvmerge v5.8.0 ('No Sleep / Pillow') built on Sep 2 2012 15:37:04
Writing library : libebml v1.2.3 + libmatroska v1.3.0

Video
ID : 1
Format : AVC
Format/Info : Advanced Video Codec
Format profile : High@L4.1
Format settings, CABAC : Yes
Format settings, ReFrames : 4 frames
Muxing mode : Header stripping
Codec ID : V_MPEG4/ISO/AVC
Duration : 1h 25mn
Bit rate : 629 Kbps
Width : 720 pixels
Height : 384 pixels
Display aspect ratio : 1.85:1
Frame rate mode : Constant
Frame rate : 23.976 fps
Color space : YUV
Chroma subsampling : 4:2:0
Bit depth : 8 bits
Scan type : Progressive
Bits/(Pixel*Frame) : 0.095
Stream size : 387 MiB (42%)
Title : Madagascar ( by fantasma )
Writing library : x264 core 130 r2273 b3065e6
Encoding settings : cabac=1 / ref=3 / deblock=1:0:0 / analyse=0x3:0x113 / me=hex / subme=7 / psy=1 / psy_rd=1.00:0.00 / mixed_ref=1 / me_range=16 / chroma_me=1 / trellis=1 / 8x8dct=1 / cqm=0 / deadzone=21,11 / fast_pskip=1 / chroma_qp_offset=-2 / threads=3 / lookahead_threads=1 / sliced_threads=0 / nr=0 / decimate=1 / interlaced=0 / bluray_compat=0 / constrained_intra=0 / bframes=3 / b_pyramid=2 / b_adapt=1 / b_bias=0 / direct=1 / weightb=1 / open_gop=0 / weightp=2 / keyint=240 / keyint_min=23 / scenecut=40 / intra_refresh=0 / rc_lookahead=40 / rc=crf / mbtree=1 / crf=23.0 / qcomp=0.60 / qpmin=0 / qpmax=69 / qpstep=4 / vbv_maxrate=62500 / vbv_bufsize=78125 / crf_max=0.0 / nal_hrd=none / ip_ratio=1.40 / aq=1:1.00
Language : Portuguese
Default : Yes
Forced : No

Audio #1
ID : 2
Format : AC-3
Format/Info : Audio Coding 3
Mode extension : CM (complete main)
Format settings, Endianness : Big
Muxing mode : Header stripping
Codec ID : A_AC3
Duration : 1h 25mn
Bit rate mode : Constant
Bit rate : 384 Kbps
Channel(s) : 6 channels
Channel positions : Front: L C R, Side: L R, LFE
Sampling rate : 48.0 KHz
Bit depth : 16 bits
Compression mode : Lossy
Stream size : 236 MiB (26%)
Title : by fantasma
Language : Portuguese
Default : Yes
Forced : No

Audio #2
ID : 3
Format : AC-3
Format/Info : Audio Coding 3
Mode extension : CM (complete main)
Format settings, Endianness : Big
Muxing mode : Header stripping
Codec ID : A_AC3
Duration : 1h 25mn
Bit rate mode : Constant
Bit rate : 448 Kbps
Channel(s) : 6 channels
Channel positions : Front: L C R, Side: L R, LFE
Sampling rate : 48.0 KHz
Bit depth : 16 bits
Compression mode : Lossy
Stream size : 275 MiB (30%)
Title : by fantasma
Language : English
Default : No
Forced : No

Text #1
ID : 4
Format : VobSub
Muxing mode : zlib
Codec ID : S_VOBSUB
Codec ID/Info : The same subtitle format used on DVDs
Title : Portuguese - (Caption/Normal Size Char)
Language : Portuguese
Default : No
Forced : No

Text #2
ID : 5
Format : UTF-8
Codec ID : S_TEXT/UTF8
Codec ID/Info : UTF-8 Plain Text
Title : Credito
Language : Portuguese
Default : Yes
Forced : Yes

Menu
00:00:00.000 : en:Chapter 01
00:05:32.834 : en:Chapter 02
00:08:34.001 : en:Chapter 03
00:12:38.335 : en:Chapter 04
00:17:54.835 : en:Chapter 05
00:22:30.335 : en:Chapter 06
00:26:54.002 : en:Chapter 07
00:30:55.002 : en:Chapter 08
00:35:27.703 : en:Chapter 09
00:40:03.170 : en:Chapter 10
00:44:31.170 : en:Chapter 11
00:48:48.504 : en:Chapter 12
00:52:14.704 : en:Chapter 13
00:57:11.338 : en:Chapter 14
01:02:12.005 : en:Chapter 15
01:06:51.539 : en:Chapter 16
01:12:31.839 : en:Chapter 17
01:16:14.540 : en:Chapter 18
01:18:13.007 : en:Chapter 19
01:19:04.341 : en:Chapter 20
01:25:50.008 : en:Chapter 21